<?xml version="1.0" encoding="UTF-8"?>
<svg width="135px" height="40px" viewBox="0 0 135 40" version="1.1" xmlns="http://www.w3.org/2000/svg" xmlns:xlink="http://www.w3.org/1999/xlink">
    <title>Store badge</title>
    <defs>
        <rect id="path-1" x="0" y="0" width="135" height="40"></rect>
    </defs>
    <g id="all-pages" stroke="none" stroke-width="1" fill="none" fill-rule="evenodd">
        <g id="Store-badge" transform="translate(0.000000, -0.000183)">
            <mask id="mask-2" fill="white">
                <use xlink:href="#path-1"></use>
            </mask>
            <g id="Clip" fill-rule="nonzero"></g>
            <g id="Bg" mask="url(#mask-2)">
                <path d="M10.756628,0 L124.249443,0 C124.6549,0 125.066902,0 125.472366,0.00187172065 C125.75296,0.00346346106 126.039421,0.00766046811 126.322174,0.0118031064 C126.385811,0.0127355065 126.449265,0.0136651527 126.512421,0.0145617202 C127.268532,0.0220094854 128.022858,0.0811045021 128.768723,0.191321716 C129.517502,0.304242119 130.243073,0.515569091 130.921478,0.818321705 C132.27832,1.43602705 133.382584,2.41519785 134.078964,3.61812162 C134.419296,4.21750498 134.6548,4.85928345 134.777405,5.52144194 C134.903214,6.18323755 134.973206,6.85242414 134.986786,7.52344179 C134.991196,7.83008194 134.991196,8.13770103 134.991196,8.44434071 C135,8.80664062 135,9.16992092 135,9.53613091 L135,30.4648018 C135,30.8340015 135,31.1953011 134.991196,31.5586014 C134.991196,31.8691006 134.991196,32.169899 134.986786,32.4804993 C134.973206,33.1514816 134.903214,33.8206367 134.777405,34.482399 C134.655136,35.1449432 134.419632,35.7870903 134.078964,36.3866997 C133.732925,36.9834557 133.283081,37.5282211 132.745941,38.0009995 C132.212814,38.4778481 131.596832,38.8758049 130.921478,39.1796989 C130.243073,39.4832611 129.517578,39.6958466 128.768723,39.8105011 C128.022736,39.9198227 127.268478,39.9789238 126.512421,39.9873009 C126.168671,39.9941025 125.816116,39.9980011 125.472366,39.9980011 C125.066902,40 124.6549,40 124.249443,40 L10.756628,40 C10.3429546,40 9.93418884,40 9.52159882,39.9980011 C9.17621326,39.9980011 8.83358002,39.9941025 8.48487759,39.9873009 C7.72738409,39.9784546 6.97170067,39.9193573 6.22416162,39.8105011 C5.47771597,39.6966476 4.75481224,39.484005 4.07966805,39.1796989 C3.40371203,38.8759804 2.78716516,38.4780121 2.25357485,38.0009995 C1.71504951,37.5300674 1.26616073,36.9849014 0.924356401,36.3866997 C0.581123531,35.7875252 0.343339086,35.1453285 0.219257548,34.482399 C0.0936522335,33.8207283 0.0260613766,33.1514244 0.0170915965,32.4804993 C0.0099390056,32.2682991 0.0071569928,32.0606747 0.00435295561,31.8514023 C0.00305270054,31.7543621 0.00174770935,31.6569691 0,31.5586014 L0,8.44434071 C0.00176842161,8.34604454 0.00308356923,8.24764824 0.00439918227,8.14921665 C0.00718770176,7.94058561 0.00997831207,7.73179865 0.0170915965,7.52348185 C0.0260586273,6.85252237 0.0936494619,6.18318701 0.219257548,5.52148199 C0.343682677,4.85894012 0.581453025,4.21711063 0.924356401,3.61816168 C1.26631606,3.01801801 1.71514165,2.47063875 2.25357485,1.99707174 C2.78919625,1.52216923 3.40534472,1.12447345 4.07966805,0.818411708 C4.75481701,0.514917493 5.47779942,0.303534344 6.22416162,0.191411719 C6.97157383,0.0816779807 7.7273345,0.0226035239 8.48487759,0.0147017203 C8.55727005,0.0136865294 8.62940121,0.0126316873 8.70134926,0.0115795154 C8.97596359,0.00756355654 9.24791718,0.00358650973 9.52159882,0.00200172071 C9.93419933,0 10.3429327,0 10.756628,0 Z M8.40803623,39.1173019 C8.74965668,39.1241035 9.08565998,39.128006 9.42998028,39.128006 L124.350464,39.1300049 L125.5755,39.128006 C125.912048,39.128006 126.258652,39.1241035 126.589661,39.1173019 C127.297409,39.109684 128.00351,39.0551491 128.702042,38.9541664 C129.358032,38.8556862 129.9935,38.6703072 130.587082,38.4042587 C131.172882,38.1407433 131.706879,37.7954102 132.168549,37.3815422 C132.631073,36.9758224 133.018402,36.5080795 133.316269,35.9955521 C133.61525,35.4697533 133.821075,34.9063873 133.926529,34.3252029 C134.041931,33.7122383 134.106491,33.0926208 134.119659,32.4713135 C134.124069,32.16465 134.124084,31.8666916 134.124084,31.5414238 C134.133011,31.1839485 134.133011,30.8293724 134.133011,30.4659958 L134.133011,9.53294849 C134.133011,9.17301369 134.133011,8.81600857 134.124084,8.44093037 C134.124084,8.13812733 134.124084,7.83386421 134.120804,7.5506053 C134.10733,6.91801119 134.041672,6.28713226 133.924393,5.66300011 C133.817902,5.08939695 133.613983,4.5333519 133.319565,4.01373577 C132.717514,2.97461128 131.763199,2.12825727 130.590347,1.59329927 C129.995132,1.3287195 129.358719,1.14404035 128.702042,1.0453347 C128.007599,0.944473565 127.30555,0.890111387 126.60186,0.882710695 L125.569962,0.870007992 L9.43053436,0.870007992 L8.41081715,0.882220566 C7.70066977,0.890008271 6.99217939,0.944859803 6.29129028,1.04631484 C5.64120245,1.14379776 5.01135969,1.32719719 4.42286253,1.59036851 C3.8374238,1.85581815 3.30265856,2.20090771 2.83806849,2.61305261 C2.3729558,3.0213182 1.98554409,3.49349999 1.69085205,4.01129436 C1.39165282,4.53452253 1.18454015,5.09514189 1.07668424,5.67374277 C0.96077162,6.29279518 0.898235679,6.91875458 0.889617682,7.54620361 C0.885210276,7.68165207 0.879676501,7.97989432 0.873016357,8.44093037 L0.873016357,31.5463219 C0.87926964,32.0145531 0.884784579,32.3189824 0.889561176,32.45961 C0.898561776,33.0880547 0.961463451,33.7149925 1.07772386,34.3350067 C1.18538105,34.9120255 1.39233339,35.4710312 1.6913718,35.9925499 C1.98715091,36.510704 2.37672544,36.9825325 2.84465718,37.3893433 C3.30591226,37.8010025 3.83897185,38.1443253 4.42341614,38.4061584 C5.01326847,38.6701775 5.64430428,38.8548737 6.29570866,38.9541664 C6.9943037,39.054615 7.70034313,39.1091423 8.40803623,39.1173019 Z" id="Vector"></path>
                <path d="M9.42998091,39.1280055 C9.08566,39.1280055 8.74965696,39.1241039 8.40803701,39.1173024 C7.7003436,39.1091415 6.994304,39.0546123 6.29570913,38.9541662 C5.64430465,38.8548736 5.01326883,38.6701759 4.42341615,38.4061562 C3.8389721,38.1443241 3.30591229,37.8010012 2.84465722,37.3893423 C2.3767256,36.9825325 1.98715099,36.5107024 1.69137184,35.9925502 C1.39233346,35.4710302 1.18538112,34.9120251 1.0777239,34.3350049 C0.961463442,33.7149901 0.89856175,33.0880548 0.889561158,32.4596102 C0.884784573,32.3189808 0.87926964,32.0145507 0.873016357,31.5463199 L0.873016357,8.44092902 C0.879676485,7.97989272 0.885210256,7.68165041 0.889617672,7.5462021 C0.89823567,6.91875295 0.96077165,6.29279364 1.07668427,5.67374117 C1.18454022,5.09514024 1.39165279,4.53452119 1.69085209,4.01129296 C1.98554419,3.49349858 2.37295578,3.02131671 2.83806864,2.61305106 C3.30265872,2.20090631 3.83742404,1.8558167 4.42286272,1.5903671 C5.01135979,1.3271957 5.6412026,1.14379635 6.29129034,1.04631343 C6.99217955,0.944858368 7.70067022,0.890006839 8.41081707,0.882219126 L9.43053488,0.870006561 L125.569964,0.870006561 L126.601866,0.882709238 C127.305553,0.890109983 128.007606,0.944472118 128.702054,1.0453332 C129.358723,1.14403891 129.995137,1.32871801 130.590357,1.59329779 C131.763202,2.1282557 132.717525,2.97460981 133.319565,4.01373405 C133.613989,4.53335024 133.817901,5.08939541 133.924392,5.66299856 C134.041685,6.28713044 134.107336,6.9180096 134.120811,7.5506035 C134.124088,7.83386271 134.124087,8.1381257 134.124087,8.44092902 C134.133011,8.81600742 134.133011,9.17301211 134.133011,9.53294737 L134.133011,30.4659938 C134.133011,30.8293697 134.133011,31.1839458 134.124087,31.5414205 C134.124087,31.8666885 134.12408,32.1646488 134.119673,32.4713129 C134.10649,33.0926184 134.041941,33.7122384 133.926539,34.3252024 C133.821089,34.906385 133.615262,35.4697525 133.31628,35.9955493 C133.01841,36.5080776 132.631079,36.9758206 132.16855,37.3815392 C131.70688,37.7954104 131.172881,38.1407436 130.58708,38.404256 C129.99351,38.6703053 129.358032,38.8556859 128.702054,38.9541662 C128.003512,39.0551483 127.297412,39.109681 126.589666,39.1173024 C126.258657,39.1241039 125.912054,39.1280055 125.575508,39.1280055 L124.350473,39.1300049 L9.42998091,39.1280055 Z" id="Vector" fill="#000000" fill-rule="nonzero"></path>
            </g>
            <g id="&lt;Group&gt;" mask="url(#mask-2)" fill="#FFFFFF" fill-rule="nonzero">
                <g transform="translate(18.000000, 8.720268)" id="&lt;Path&gt;">
                    <path d="M14.7973137,11.5804105 C14.8080673,10.7457497 15.0297699,9.92737055 15.4417953,9.20141649 C15.8538208,8.47546244 16.4427799,7.86552393 17.1538734,7.42835093 C16.7021368,6.78319061 16.106189,6.2522487 15.4133625,5.87769651 C14.7205361,5.50314432 13.9499168,5.29530007 13.1627121,5.2706704 C11.4834721,5.09441041 9.85552311,6.27550077 8.99981308,6.27550077 C8.12754309,6.27550077 6.81004214,5.28817039 5.39131212,5.31736039 C4.47363806,5.34700849 3.57929248,5.61386186 2.79541445,6.09192038 C2.01153642,6.56997889 1.36485982,7.2429378 0.918392718,8.04522943 C-1.0156073,11.3936493 0.426982045,16.3146989 2.27959204,19.0213089 C3.20649207,20.3466589 4.28977251,21.8271105 5.70722246,21.7746105 C7.09428251,21.7170805 7.61232305,20.8901291 9.286623,20.8901291 C10.945383,20.8901291 11.4314126,21.77461 12.8776226,21.74123 C14.3660026,21.71707 15.3037535,20.4099902 16.1981335,19.0720901 C16.8641096,18.1277298 17.3765764,17.0840058 17.7165527,15.9795799 C16.8518454,15.6138512 16.1139259,15.0016739 15.5948029,14.2193775 C15.0756798,13.4370812 14.7983229,12.5192797 14.7973137,11.5804105 L14.7973137,11.5804105 Z"></path>
                    <path d="M12.0656838,3.49061966 C12.8772104,2.51641154 13.2770179,1.2642324 13.180203,0 C11.9403708,0.130220488 10.7951126,0.722779453 9.97262239,1.65960979 C9.57048103,2.11727542 9.26248425,2.64971179 9.06623888,3.22648144 C8.86999351,3.80325109 8.78934859,4.41304421 8.82891321,5.02099991 C9.44905257,5.027385 10.0625566,4.89297214 10.623219,4.62788486 C11.1838814,4.36279759 11.6770857,3.97394678 12.0656838,3.49061966 Z"></path>
                </g>
            </g>
            <g id="Text" mask="url(#mask-2)">
                <g transform="translate(42.455704, 8.437004)" id="Vector">
                    <g transform="translate(0.000000, 9.434034)">
                        <path d="M7.875,9.26861 L3.14160156,9.26861 L2.00488281,12.6250591 L0,12.6250591 L4.48340225,0.20705986 L6.56640244,0.20705986 L11.0498009,12.6250591 L9.01073074,12.6250591 L7.875,9.26861 Z M3.63183212,7.71977997 L7.38383102,7.71977997 L5.53422165,2.27251053 L5.48246002,2.27251053 L3.63183212,7.71977997 Z" fill="#FFFFFF" fill-rule="nonzero"></path>
                        <path d="M20.7324219,8.09869003 C20.7324219,10.9121699 19.2265615,12.71978 16.9541016,12.71978 C16.3784466,12.7498932 15.8059483,12.6172886 15.3021545,12.3371506 C14.7983608,12.0570126 14.3836381,11.640666 14.1054726,11.1357803 L14.0624695,11.1357803 L14.0624695,15.6201601 L12.204071,15.6201601 L12.204071,3.5713408 L14.0029297,3.5713408 L14.0029297,5.07719994 L14.0371094,5.07719994 C14.3280642,4.57473481 14.7497928,4.16054451 15.2574234,3.87869859 C15.765054,3.59685263 16.3395982,3.45789536 16.9199219,3.47661042 C19.217732,3.47662042 20.7324219,5.29302001 20.7324219,8.09869003 Z M18.8222618,8.09869003 C18.8222618,6.26569009 17.87499,5.06060028 16.4296799,5.06060028 C15.0097599,5.06060028 14.0546799,6.29106998 14.0546799,8.09869003 C14.0546799,9.92290974 15.0097599,11.1445904 16.4296799,11.1445904 C17.875,11.1445904 18.8222618,9.94829988 18.8222618,8.09869003 Z" fill="#FFFFFF" fill-rule="nonzero"></path>
                        <path d="M30.6972618,8.09869003 C30.6972618,10.9121699 29.1914053,12.7197809 26.9189453,12.7197809 C26.3432903,12.7498941 25.770792,12.6172895 25.2669983,12.3371515 C24.7632046,12.0570135 24.3484819,11.6406655 24.0703163,11.1357803 L24.0273132,11.1357803 L24.0273132,15.6201601 L22.1689148,15.6201601 L22.1689148,3.57134128 L23.9677353,3.57134128 L23.9677353,5.07720089 L24.001915,5.07720089 C24.2928717,4.57473612 24.7146006,4.16054714 25.2222328,3.87870288 C25.7298651,3.59685865 26.3044109,3.45790255 26.8847351,3.47662044 C29.1826153,3.47662044 30.6972618,5.29302001 30.6972618,8.09869003 Z M28.7871056,8.09869003 C28.7871056,6.26569009 27.8398337,5.06060123 26.3945236,5.06060123 C24.9746037,5.06060123 24.0195236,6.29106998 24.0195236,8.09869003 C24.0195236,9.92291021 24.9746037,11.1445904 26.3945236,11.1445904 C27.8398437,11.1445904 28.7871056,9.94829988 28.7871056,8.09869003 Z" fill="#FFFFFF" fill-rule="nonzero"></path>
                        <path d="M37.2832031,9.16509056 C37.4209032,10.3965406 38.6172032,11.2050896 40.2519531,11.2050896 C41.8183632,11.2050896 42.9453125,10.3965006 42.9453125,9.28614044 C42.9453125,8.32227039 42.2656202,7.74513912 40.65625,7.34961891 L39.0468826,6.96191978 C36.7666125,6.41113997 35.7080078,5.34472942 35.7080078,3.61425972 C35.7080078,1.47167969 37.5752025,0 40.2265625,0 C42.8505626,0 44.6494112,1.47167969 44.7099609,3.61425972 L42.8339615,3.61425972 C42.7216616,2.37499976 41.6972423,1.62695885 40.2001724,1.62695885 C38.7031026,1.62695885 37.678688,2.38379908 37.678688,3.48535919 C37.678688,4.36328936 38.3329909,4.87988997 39.9335709,5.27536011 L41.3017273,5.61129951 C43.849577,6.21383953 44.9081802,7.2373004 44.9081802,9.05368042 C44.9081802,11.3769207 43.0575876,12.8319988 40.1142273,12.8319988 C37.3603172,12.8319988 35.5009489,11.4110985 35.3808289,9.16499901 L37.2832031,9.16509056 Z" fill="#FFFFFF" fill-rule="nonzero"></path>
                        <path d="M48.9189377,1.42876053 L48.9189377,3.57134056 L50.6406174,3.57134056 L50.6406174,5.04302025 L48.9189377,5.04302025 L48.9189377,10.0342293 C48.9189377,10.8096189 49.2636702,11.1709499 50.0205002,11.1709499 C50.2248917,11.1673861 50.4289503,11.1530313 50.6318283,11.1279488 L50.6318283,12.5908394 C50.2915568,12.6544189 49.9457026,12.6832132 49.5996017,12.6767788 C47.7666018,12.6767788 47.0517502,11.9882994 47.0517502,10.232439 L47.0517502,5.04302025 L45.7353516,5.04302025 L45.7353516,3.57134056 L47.0517273,3.57134056 L47.0517273,1.42876053 L48.9189377,1.42876053 Z" fill="#FFFFFF" fill-rule="nonzero"></path>
                        <path d="M51.6377335,8.09869003 C51.6377335,5.25006008 53.3154588,3.46002007 55.9316788,3.46002007 C58.5566788,3.46002007 60.2266006,5.25002003 60.2266006,8.09869003 C60.2266006,10.9551401 58.5654688,12.73736 55.9316788,12.73736 C53.2988188,12.73736 51.6377335,10.9551301 51.6377335,8.09869003 Z M58.3330383,8.09869003 C58.3330383,6.1445899 57.437531,4.99127007 55.9316711,4.99127007 C54.4258113,4.99127007 53.5312805,6.15337992 53.5312805,8.09869003 C53.5312805,10.0606003 54.4258113,11.2051392 55.9316711,11.2051392 C57.437531,11.2051392 58.3330383,10.0606003 58.3330383,8.09869003 Z" fill="#FFFFFF" fill-rule="nonzero"></path>
                        <path d="M61.7587891,3.57134032 L63.53125,3.57134032 L63.53125,5.11233902 L63.5742493,5.11233902 C63.6941695,4.63105321 63.976124,4.20572183 64.3727112,3.90783668 C64.7692983,3.60995153 65.2563438,3.45767311 65.7519836,3.4765985 C65.9661479,3.47585073 66.1797194,3.49911091 66.3887024,3.54594016 L66.3887024,5.28421974 C66.1183333,5.20160306 65.8362927,5.16367018 65.5537033,5.17191887 C65.2837265,5.1609664 65.014576,5.20856857 64.7647324,5.31145477 C64.5148888,5.41434097 64.2902675,5.57007456 64.1062927,5.76796532 C63.922318,5.96585608 63.783349,6.20121598 63.6989212,6.45788574 C63.6144935,6.7145555 63.5866054,6.98645568 63.6171799,7.25491905 L63.6171799,12.6250401 L61.7587814,12.6250401 L61.7587891,3.57134032 Z" fill="#FFFFFF" fill-rule="nonzero"></path>
                        <path d="M74.9570312,9.9658699 C74.7070312,11.6094198 73.1064434,12.7373505 71.0585938,12.7373505 C68.4248037,12.7373505 66.7900391,10.9726992 66.7900391,8.14164925 C66.7900391,5.30180931 68.4335887,3.46001053 70.9804688,3.46001053 C73.4853487,3.46001053 75.0605545,5.18070889 75.0605545,7.92582893 L75.0605545,8.56254959 L68.6660233,8.56254959 L68.6660233,8.67485046 C68.6365099,9.0080514 68.6782217,9.34371758 68.7883987,9.65955734 C68.8985758,9.97539711 69.074697,10.2641811 69.3050537,10.5067291 C69.5354104,10.7492771 69.8147302,10.9400387 70.1244736,11.0663433 C70.434217,11.1926479 70.7672911,11.2516055 71.1015701,11.2392998 C71.54073,11.2804475 71.9814429,11.1787376 72.3581543,10.949297 C72.7348657,10.7198563 73.0274496,10.3749433 73.1923904,9.96586037 L74.9570312,9.9658699 Z M68.6748047,7.26371956 L73.2011719,7.26371956 C73.2178545,6.96412349 73.1724343,6.66431355 73.0677567,6.38310432 C72.963079,6.10189509 72.8014016,5.8453567 72.5928802,5.62959099 C72.3843589,5.41382515 72.1334901,5.24348915 71.8560181,5.12927246 C71.578546,5.01505578 71.2804599,4.95942473 70.9804688,4.9658699 C70.6778369,4.96406388 70.3778434,5.02220953 70.0978012,5.13695145 C69.817759,5.25169337 69.5632136,5.42076027 69.3488541,5.63439369 C69.1344945,5.84802723 68.9645684,6.10199785 68.848877,6.38164902 C68.7331855,6.66130018 68.6740255,6.96108341 68.6748047,7.26371956 Z" fill="#FFFFFF" fill-rule="nonzero"></path>
                    </g>
                    <g transform="translate(1.243645, 0.000000)">
                        <path d="M2.15526962,0.293999404 C2.54488373,0.266040185 2.93584514,0.324900195 3.29995728,0.466333121 C3.66406941,0.607766032 3.9922564,0.828246534 4.26084137,1.11187148 C4.5294261,1.39549643 4.7317152,1.73519516 4.8531189,2.10646605 C4.97452259,2.47773695 5.012012,2.87132454 4.96288681,3.25883937 C4.96288681,5.16508961 3.93261957,6.26083899 2.15526962,6.26083899 L0,6.26083899 L0,0.293999404 L2.15526962,0.293999404 Z M0.926750183,5.41699934 L2.05175018,5.41699934 C2.33015585,5.43364096 2.60876656,5.38799334 2.86730576,5.28337908 C3.12584496,5.17876482 3.35780621,5.01781607 3.54629898,4.81225061 C3.73479176,4.60668516 3.87507415,4.36167693 3.95693588,4.09505844 C4.03879738,3.82844019 4.0601778,3.54692268 4.01951981,3.27099967 C4.05722713,2.99616599 4.03367901,2.71639419 3.95056152,2.45173049 C3.8674438,2.18706679 3.72681308,1.94406331 3.53874969,1.74013305 C3.35068631,1.53620279 3.11984253,1.37639481 2.86276245,1.27215838 C2.60568237,1.16792196 2.32873225,1.12183821 2.05175018,1.13720965 L0.926750183,1.13720965 L0.926750183,5.41699934 Z" fill="#FFFFFF" fill-rule="nonzero"></path>
                        <path d="M6.00975895,4.00733948 C5.98144985,3.71142125 6.01530283,3.41285312 6.10914326,3.13078403 C6.20298368,2.84871495 6.35473889,2.58937275 6.55468082,2.36939049 C6.75462276,2.14940819 6.99833763,1.97364238 7.27018833,1.85336685 C7.54203904,1.73309133 7.83602488,1.67096138 8.13329411,1.67096138 C8.43056345,1.67096138 8.72455311,1.73309133 8.99640369,1.85336685 C9.26825428,1.97364238 9.51196551,2.14940819 9.71190739,2.36939049 C9.91184926,2.58937275 10.0636082,2.84871495 10.1574488,3.13078403 C10.2512894,3.41285312 10.2851381,3.71142125 10.2568293,4.00733948 C10.2856755,4.30356169 10.2522273,4.60254312 10.1586351,4.88506794 C10.065043,5.16759276 9.91337657,5.42741084 9.71338367,5.64782524 C9.51339078,5.86823988 9.26949596,6.04437399 8.99737263,6.16490841 C8.72524929,6.28544283 8.4309175,6.34771156 8.13329411,6.34771156 C7.83567059,6.34771156 7.54133904,6.28544283 7.26921558,6.16490841 C6.99709213,6.04437399 6.75319755,5.86823988 6.55320454,5.64782524 C6.35321152,5.42741084 6.20154526,5.16759276 6.10795307,4.88506794 C6.01436088,4.60254312 5.9809126,4.30356169 6.00975895,4.00733948 Z M9.34275913,4.00733948 C9.34275913,3.03126955 8.90427899,2.4604702 8.13475895,2.4604702 C7.36229897,2.4604702 6.92775822,3.03127003 6.92775822,4.00734997 C6.92775822,4.99124002 7.36232901,5.55764008 8.13475895,5.55764008 C8.90429902,5.55763006 9.34275913,4.98731947 9.34275913,4.00733948 Z" fill="#FFFFFF" fill-rule="nonzero"></path>
                        <path d="M15.9023399,6.26074982 L14.9804688,6.26074982 L14.0498085,2.94433975 L13.9794998,2.94433975 L13.0527382,6.26074982 L12.1396484,6.26074982 L10.8984375,1.75782013 L11.7998085,1.75782013 L12.6064491,5.19382 L12.6728592,5.19382 L13.5986404,1.75782013 L14.4511795,1.75782013 L15.3769569,5.19382 L15.4472694,5.19382 L16.25,1.75782013 L17.1386681,1.75782013 L15.9023399,6.26074982 Z" fill="#FFFFFF" fill-rule="nonzero"></path>
                        <path d="M18.1826172,1.75782001 L19.0380783,1.75782001 L19.0380783,2.4731493 L19.1044884,2.4731493 C19.2171428,2.21622866 19.4071463,2.00085668 19.6480179,1.85705078 C19.8888894,1.71324487 20.1686268,1.64817055 20.4482384,1.67089927 C20.6673374,1.65442638 20.8873363,1.68746196 21.0919342,1.76755798 C21.2965322,1.847654 21.4804857,1.97275823 21.6301689,2.1336019 C21.7798522,2.29444554 21.8914292,2.48690665 21.9566307,2.6967268 C22.0218322,2.90654695 22.0389874,3.12834811 22.0068283,3.34569931 L22.0068283,6.26069927 L21.1181602,6.26069927 L21.1181602,3.56886005 C21.1181602,2.84522998 20.8037105,2.48536015 20.1464806,2.48536015 C19.9977232,2.47843164 19.8492234,2.50374973 19.7111664,2.55957985 C19.5731094,2.61540997 19.4487586,2.70043194 19.3466339,2.80881691 C19.2445092,2.91720188 19.1670267,3.04638648 19.1194992,3.18751717 C19.0719717,3.32864785 19.0555215,3.47838688 19.0712776,3.62646961 L19.0712776,6.26074982 L18.1826096,6.26074982 L18.1826172,1.75782001 Z" fill="#FFFFFF" fill-rule="nonzero"></path>
                        <path d="M23.4228439,0 L24.3115158,0 L24.3115158,6.26073933 L23.4228439,6.26073933 L23.4228439,0 Z" fill="#FFFFFF" fill-rule="nonzero"></path>
                        <path d="M25.5468616,4.00733948 C25.5185742,3.71140122 25.552448,3.41281772 25.6463108,3.1307373 C25.7401736,2.84865689 25.8919544,2.58930659 26.091917,2.36931896 C26.2918797,2.14933136 26.5356123,1.97356316 26.8074818,1.85328579 C27.0793512,1.73300841 27.3733596,1.67087746 27.6706467,1.67087746 C27.9679337,1.67087746 28.2619402,1.73300841 28.5338097,1.85328579 C28.8056791,1.97356316 29.049408,2.14933136 29.2493706,2.36931896 C29.4493332,2.58930659 29.6011105,2.84865689 29.694973,3.1307373 C29.7888355,3.41281772 29.8227096,3.71140122 29.7944221,4.00733948 C29.8232322,4.30357337 29.7897539,4.60255861 29.6961327,4.88508224 C29.6025114,5.16760588 29.4508171,5.42741823 29.2508049,5.64782619 C29.0507927,5.86823416 28.8068826,6.04436111 28.5347481,6.16489029 C28.2626135,6.28541946 27.9682782,6.34768486 27.6706467,6.34768486 C27.3730152,6.34768486 27.0786704,6.28541946 26.8065357,6.16489029 C26.5344011,6.04436111 26.2904912,5.86823416 26.0904789,5.64782619 C25.8904666,5.42741823 25.7387764,5.16760588 25.645155,4.88508224 C25.5515335,4.60255861 25.5180518,4.30357337 25.5468616,4.00733948 Z M28.8798637,4.00733948 C28.8798637,3.03126955 28.4413836,2.4604702 27.6718636,2.4604702 C26.8994036,2.4604702 26.4648647,3.03127003 26.4648647,4.00734997 C26.4648647,4.99124002 26.8994336,5.55764008 27.6718636,5.55764008 C28.4413936,5.55763006 28.8798637,4.98731947 28.8798637,4.00733948 Z" fill="#FFFFFF" fill-rule="nonzero"></path>
                        <path d="M30.7299805,4.98731995 C30.7299805,4.17676997 31.3334975,3.70948982 32.4047775,3.64307976 L33.6245117,3.57277012 L33.6245117,3.18410015 C33.6245117,2.70851016 33.3100567,2.43995953 32.7026367,2.43995953 C32.2065468,2.43995953 31.8628001,2.62208974 31.7641602,2.94044971 L30.9038086,2.94044971 C30.9946286,2.16700971 31.7221724,1.67091942 32.7436523,1.67091942 C33.8725624,1.67091942 34.5092773,2.23292017 34.5092773,3.18410015 L34.5092773,6.26075935 L33.6538086,6.26075935 L33.6538086,5.62794971 L33.5834961,5.62794971 C33.4407799,5.85494184 33.2403779,6.0399909 33.0027542,6.16420174 C32.7651305,6.28841257 32.4988,6.34733391 32.230957,6.33494949 C32.0419239,6.35461187 31.8508663,6.33444452 31.670105,6.27574635 C31.4893436,6.21704817 31.3228903,6.12112141 31.1814728,5.99415207 C31.0400552,5.86718273 30.9268173,5.71198845 30.8490524,5.53857327 C30.7712876,5.36515808 30.7307252,5.1773715 30.7299805,4.98731995 Z M33.6245117,4.60254955 L33.6245117,4.22608948 L32.5249023,4.29640007 C31.9047823,4.33790016 31.6235275,4.54883933 31.6235275,4.94580936 C31.6235275,5.35107946 31.9750866,5.58691978 32.4585266,5.58691978 C32.6001718,5.60125804 32.7432523,5.58695602 32.8792572,5.54486561 C33.0152621,5.50277519 33.1414135,5.43375611 33.2501984,5.34191513 C33.3589833,5.25007415 33.448185,5.13728833 33.5124893,5.01026917 C33.5767937,4.88325 33.6148908,4.74459314 33.6245117,4.60254955 Z" fill="#FFFFFF" fill-rule="nonzero"></path>
                        <path d="M35.6772385,4.00733948 C35.6772385,2.58448935 36.4086891,1.68311977 37.5463791,1.68311977 C37.827795,1.67015314 38.107091,1.73755634 38.3516159,1.87745094 C38.5961409,2.01734543 38.7957919,2.22395158 38.9272385,2.47311974 L38.9936523,2.47311974 L38.9936523,0 L39.8823166,0 L39.8823166,6.26073933 L39.0307617,6.26073933 L39.0307617,5.54930973 L38.9604492,5.54930973 C38.8188434,5.79680061 38.6122282,6.00083494 38.3629761,6.13931751 C38.113724,6.27780008 37.8313317,6.34545231 37.5463867,6.33494949 C36.4008768,6.33499956 35.6772385,5.43360949 35.6772385,4.00733948 Z M36.5952377,4.00733948 C36.5952377,4.96241951 37.0454404,5.5371294 37.7983704,5.5371294 C38.5473704,5.5371294 39.0102768,4.9541297 39.0102768,4.01124954 C39.0102768,3.07276964 38.5425105,2.48145962 37.7983704,2.48145962 C37.0502903,2.48145962 36.5952377,3.06006956 36.5952377,4.00733948 Z" fill="#FFFFFF" fill-rule="nonzero"></path>
                        <path d="M43.5590782,4.00733948 C43.5307691,3.71142125 43.5646183,3.41285312 43.6584587,3.13078403 C43.7522991,2.84871495 43.9040582,2.58937275 44.1040001,2.36939049 C44.303942,2.14940819 44.5476493,1.97364238 44.8195,1.85336685 C45.0913507,1.73309133 45.3853441,1.67096138 45.6826134,1.67096138 C45.9798827,1.67096138 46.2738686,1.73309133 46.5457191,1.85336685 C46.8175697,1.97364238 47.0612772,2.14940819 47.261219,2.36939049 C47.4611609,2.58937275 47.6129198,2.84871495 47.7067604,3.13078403 C47.800601,3.41285312 47.8344574,3.71142125 47.8061485,4.00733948 C47.8349948,4.30356169 47.8015428,4.60254312 47.7079506,4.88506794 C47.6143584,5.16759276 47.462692,5.42741084 47.2626991,5.64782524 C47.0627062,5.86823988 46.8188114,6.04437399 46.5466881,6.16490841 C46.2745647,6.28544283 45.9802368,6.34771156 45.6826134,6.34771156 C45.3849899,6.34771156 45.0906545,6.28544283 44.818531,6.16490841 C44.5464076,6.04437399 44.302513,5.86823988 44.10252,5.64782524 C43.902527,5.42741084 43.7508607,5.16759276 43.6572685,4.88506794 C43.5636763,4.60254312 43.5302319,4.30356169 43.5590782,4.00733948 Z M46.8920784,4.00733948 C46.8920784,3.03126955 46.4535983,2.4604702 45.6840782,2.4604702 C44.9116182,2.4604702 44.4770775,3.03127003 44.4770775,4.00734997 C44.4770775,4.99124002 44.9116483,5.55764008 45.6840782,5.55764008 C46.4536083,5.55763006 46.8920784,4.98731947 46.8920784,4.00733948 Z" fill="#FFFFFF" fill-rule="nonzero"></path>
                        <path d="M48.9985275,1.75782001 L49.8539963,1.75782001 L49.8539963,2.4731493 L49.9204102,2.4731493 C50.0330646,2.21622866 50.2230643,2.00085668 50.4639359,1.85705078 C50.7048074,1.71324487 50.9845486,1.64817055 51.2641602,1.67089927 C51.4832592,1.65442638 51.7032542,1.68746196 51.9078522,1.76755798 C52.1124501,1.847654 52.2964075,1.97275823 52.4460907,2.1336019 C52.5957739,2.29444554 52.707351,2.48690665 52.7725525,2.6967268 C52.837754,2.90654695 52.8549054,3.12834811 52.8227463,3.34569931 L52.8227463,6.26069927 L51.934082,6.26069927 L51.934082,3.56886005 C51.934082,2.84522998 51.6196322,2.48536015 50.9624023,2.48536015 C50.813645,2.47843164 50.6651413,2.50374973 50.5270844,2.55957985 C50.3890274,2.61540997 50.2646766,2.70043194 50.1625519,2.80881691 C50.0604272,2.91720188 49.9829447,3.04638648 49.9354172,3.18751717 C49.8878897,3.32864785 49.8714433,3.47838688 49.8871994,3.62646961 L49.8871994,6.26074982 L48.9985275,6.26074982 L48.9985275,1.75782001 Z" fill="#FFFFFF" fill-rule="nonzero"></path>
                        <path d="M57.8442383,0.636730194 L57.8442383,1.77832985 L58.8198318,1.77832985 L58.8198318,2.52686977 L57.8442383,2.52686977 L57.8442383,4.84229946 C57.8442383,5.31397963 58.0385771,5.52051926 58.480957,5.52051926 C58.5942125,5.52015686 58.7073593,5.513309 58.8198318,5.5 L58.8198318,6.2402401 C58.6602414,6.26879072 58.4985414,6.28397942 58.3364258,6.2856493 C57.3481457,6.2856493 56.9545898,5.93799019 56.9545898,5.06982994 L56.9545898,2.52682972 L56.2397461,2.52682972 L56.2397461,1.77828979 L56.9545898,1.77828979 L56.9545898,0.636730194 L57.8442383,0.636730194 Z" fill="#FFFFFF" fill-rule="nonzero"></path>
                        <path d="M60.0336914,0 L60.9145508,0 L60.9145508,2.48145008 L60.9848557,2.48145008 C61.1029904,2.22212934 61.2982104,2.00553823 61.5439072,1.8611908 C61.7896039,1.71684349 62.0738289,1.65175998 62.3578568,1.67480946 C62.5758176,1.66294932 62.7937083,1.69933867 62.9959869,1.78138065 C63.1982656,1.86342263 63.3799493,1.98909509 63.5280685,2.14943314 C63.6761878,2.30977106 63.7870982,2.50082302 63.8528824,2.70895767 C63.9186666,2.91709232 63.9377022,3.13717985 63.908638,3.35351944 L63.908638,6.26074982 L63.0190811,6.26074982 L63.0190811,3.57275009 C63.0190811,2.85351014 62.6840806,2.48925018 62.0561905,2.48925018 C61.9034505,2.47672343 61.7498176,2.49772096 61.606041,2.55077457 C61.4622643,2.60382819 61.331817,2.68765593 61.2238235,2.79639339 C61.1158301,2.90513086 61.0329003,3.03615189 60.980835,3.18028927 C60.9287696,3.32442665 60.9088264,3.47819948 60.9224014,3.63084984 L60.9224014,6.26072979 L60.0337296,6.26072979 L60.0336914,0 Z" fill="#FFFFFF" fill-rule="nonzero"></path>
                        <path d="M69.090332,5.0449295 C68.9695935,5.4564693 68.7079928,5.81245327 68.3513031,6.05060291 C67.9946134,6.28875256 67.5655453,6.39390373 67.1391602,6.34766006 C66.8424973,6.35549116 66.5476787,6.29867029 66.275177,6.18114185 C66.0026753,6.06361341 65.7590137,5.88819289 65.5611038,5.66705513 C65.363194,5.44591761 65.2157808,5.18436003 65.1290894,4.90053844 C65.0423979,4.61671686 65.0185114,4.31742978 65.059082,4.0234499 C65.0195771,3.72856402 65.0438842,3.42863238 65.1303711,3.14396 C65.216858,2.85928762 65.3635042,2.59651995 65.5603714,2.3734467 C65.7572386,2.15037346 65.9997349,1.97220194 66.2714462,1.85099435 C66.5431576,1.72978677 66.8377367,1.668373 67.1352463,1.67091 C68.3881764,1.67091 69.1440353,2.52690959 69.1440353,3.94090962 L69.1440353,4.25099945 L65.9643478,4.25099945 L65.9643478,4.30079937 C65.9504325,4.46604514 65.9712065,4.63237572 66.0253296,4.78912544 C66.0794526,4.94587517 66.1657323,5.08958483 66.2786407,5.2110405 C66.3915492,5.33249617 66.5285935,5.42901707 66.6809845,5.49441433 C66.8333755,5.55981159 66.9977462,5.59264088 67.1635666,5.59079933 C67.3761411,5.61631894 67.5915031,5.57804179 67.7822647,5.48083496 C67.9730263,5.38362813 68.1305673,5.23188424 68.2348557,5.04489994 L69.090332,5.0449295 Z M65.964325,3.59375954 L68.238739,3.59375954 C68.2499416,3.44263196 68.2294006,3.2908324 68.1784439,3.1481142 C68.1274872,3.00539601 68.0472417,2.87491596 67.9428558,2.76505852 C67.83847,2.65520108 67.7122576,2.56839621 67.5723267,2.51022077 C67.4323957,2.45204532 67.2818429,2.42378622 67.1303406,2.42725968 C66.9766424,2.42532867 66.82411,2.4541862 66.6817398,2.51213098 C66.5393696,2.57007575 66.4100422,2.65593505 66.3013763,2.76464844 C66.1927105,2.87336183 66.106909,3.00272894 66.0490265,3.14512444 C65.9911439,3.28751993 65.9623268,3.44006217 65.964325,3.59375954 Z" fill="#FFFFFF" fill-rule="nonzero"></path>
                    </g>
                </g>
            </g>
        </g>
    </g>
</svg>