<?xml version="1.0" encoding="UTF-8"?>
<svg width="135px" height="40px" viewBox="0 0 135 40" version="1.1" xmlns="http://www.w3.org/2000/svg" xmlns:xlink="http://www.w3.org/1999/xlink">
    <title>Group 3</title>
    <defs>
        <linearGradient x1="61.0383823%" y1="4.96322394%" x2="26.5157051%" y2="71.903826%" id="linearGradient-1">
            <stop stop-color="#00A0FF" offset="0%"></stop>
            <stop stop-color="#00A1FF" offset="0.65700002%"></stop>
            <stop stop-color="#00BEFF" offset="26.0100007%"></stop>
            <stop stop-color="#00D2FF" offset="51.2199998%"></stop>
            <stop stop-color="#00DFFF" offset="76.0399997%"></stop>
            <stop stop-color="#00E3FF" offset="100%"></stop>
        </linearGradient>
        <linearGradient x1="107.589944%" y1="50.0000042%" x2="-130.463089%" y2="50.0000042%" id="linearGradient-2">
            <stop stop-color="#FFE000" offset="0%"></stop>
            <stop stop-color="#FFBD00" offset="40.8699989%"></stop>
            <stop stop-color="#FFA500" offset="77.5399983%"></stop>
            <stop stop-color="#FF9C00" offset="100%"></stop>
        </linearGradient>
        <linearGradient x1="86.246666%" y1="30.8660706%" x2="-50.1407125%" y2="136.056014%" id="linearGradient-3">
            <stop stop-color="#FF3A44" offset="0%"></stop>
            <stop stop-color="#C31162" offset="100%"></stop>
        </linearGradient>
        <linearGradient x1="-18.8060407%" y1="-11.8896016%" x2="42.0966049%" y2="35.0824627%" id="linearGradient-4">
            <stop stop-color="#32A071" offset="0%"></stop>
            <stop stop-color="#2DA771" offset="6.84999973%"></stop>
            <stop stop-color="#15CF74" offset="47.6200014%"></stop>
            <stop stop-color="#06E775" offset="80.0899982%"></stop>
            <stop stop-color="#00F076" offset="100%"></stop>
        </linearGradient>
    </defs>
    <g id="all-pages" stroke="none" stroke-width="1" fill="none" fill-rule="evenodd">
        <g id="Group-3" transform="translate(0.000000, -0.000183)" fill-rule="nonzero">
            <g id="Bg">
                <path d="M5,0 L130,0 C132.761424,0 135,2.23857617 135,5 L135,35 C135,37.7614238 132.761424,40 130,40 L5,40 C2.23857617,40 0,37.7614238 0,35 L0,5 C0,2.23857617 2.23857617,0 5,0 Z" id="Vector" fill="#000000"></path>
                <path d="M130,0.80000031 C131.11354,0.801286723 132.181096,1.24422914 132.96846,2.03164935 C133.755824,2.81906956 134.198699,3.88666034 134.199905,5.00020027 L134.199905,35.0002003 C134.19868,36.1137345 133.755805,37.1813166 132.968445,37.9687328 C132.181085,38.7561491 131.113534,39.1990983 130,39.2004032 L5,39.2004032 C3.88645017,39.1991195 2.81887913,38.7561813 2.03149867,37.9687634 C1.24411821,37.1813454 0.80123071,36.1137502 0.800000012,35.0002003 L0.800000012,5.00020027 C0.801212219,3.88664472 1.24409372,2.81904173 2.03147817,2.03161979 C2.81886262,1.24419785 3.88644445,0.801265543 5,0.80000031 L130,0.80000031 Z M130,0.000200271606 L5,0.000200271606 C3.67511022,0.00407837005 2.40559268,0.53210783 1.46875012,1.46895039 C0.531907558,2.40579295 0.00387809845,3.67531049 0,5.00020027 L0,35.0002003 C0.00387809845,36.3250901 0.531907558,37.5946077 1.46875012,38.5314503 C2.40559268,39.4682928 3.67511022,39.9963222 5,40.0002003 L130,40.0002003 C131.32489,39.9963222 132.594407,39.4682928 133.53125,38.5314503 C134.468093,37.5946077 134.996122,36.3250901 135,35.0002003 L135,5.00020027 C134.996122,3.67531049 134.468093,2.40579295 133.53125,1.46895039 C132.594407,0.53210783 131.32489,0.00407837005 130,0.000200271606 L130,0.000200271606 Z" id="Vector"></path>
            </g>
            <g id="Text" transform="translate(41.041435, 6.865684)" fill="#FFFFFF">
                <g id="Vector" transform="translate(0.310249, 0.000000)" stroke="#FFFFFF" stroke-width="0.200000003">
                    <path d="M6.06671429,3.37761712 C6.08488941,3.74456143 6.02819347,4.11136532 5.90008068,4.45569897 C5.77196789,4.80003262 5.57511711,5.1146903 5.32151318,5.38051605 C5.03729963,5.67527866 4.69405651,5.90671587 4.31423855,6.05968761 C3.93442035,6.21265936 3.52658772,6.28371811 3.11741567,6.26821613 C2.70563459,6.27190351 2.29726815,6.19323921 1.91632378,6.03684711 C1.53537941,5.88045502 1.18954062,5.64949036 0.899134755,5.35752869 C0.608728886,5.06556702 0.379619181,4.71849871 0.225264698,4.33672428 C0.0709102005,3.95494962 -0.00557161644,3.54617214 0,3.13441682 C-0.00552522633,2.72265053 0.0709839016,2.31386876 0.225348622,1.93208706 C0.379713356,1.55030537 0.608817458,1.20322335 0.899207234,0.91123116 C1.18959701,0.619238973 1.53541636,0.388225287 1.91634285,0.231762066 C2.29726934,0.0752988458 2.70562339,-0.00345863528 3.11741567,0.00011647855 C3.54079652,-0.00116294679 3.95993662,0.0844353139 4.34891415,0.251616597 C4.71017647,0.398057759 5.03173971,0.627760947 5.2874136,0.92201674 L4.76001263,1.44981682 C4.5590353,1.21326768 4.30640316,1.02605379 4.02160168,0.902621388 C3.73680043,0.77918905 3.4274478,0.722837985 3.11741567,0.737916589 C2.80533481,0.736302316 2.49613762,0.797688782 2.20834279,0.91839993 C1.92054784,1.03911102 1.66007423,1.21666384 1.44252312,1.44042408 C1.22497201,1.66418433 1.05481887,1.92954898 0.942252278,2.22062612 C0.829685688,2.51170325 0.777020097,2.82250476 0.787413716,3.13441682 C0.779972672,3.60161328 0.911437809,4.06049681 1.16513741,4.45287991 C1.41883707,4.845263 1.78334618,5.15347004 2.21243978,5.33841991 C2.64153337,5.52336979 3.11588264,5.57673216 3.57534337,5.49173927 C4.03480387,5.40674639 4.45867872,5.1872263 4.79321575,4.86101627 C5.10110426,4.52925396 5.27957344,4.09793091 5.29611492,3.64561677 L3.11741567,3.64561677 L3.11741567,2.92491651 L6.02471447,2.92491651 C6.05220318,3.07425976 6.06625891,3.22576571 6.06671429,3.37761712 Z"></path>
                    <path d="M10.6760139,0.871716499 L7.94361496,0.871716499 L7.94361496,2.77401638 L10.4075165,2.77401638 L10.4075165,3.49481678 L7.94361496,3.49481678 L7.94361496,5.39711666 L10.6760139,5.39711666 L10.6760139,6.13441658 L7.17311478,6.13441658 L7.17311478,0.13441658 L10.6760139,0.13441658 L10.6760139,0.871716499 Z"></path>
                    <path d="M13.9270172,6.13441658 L13.1555138,6.13441658 L13.1555138,0.871716499 L11.4797173,0.871716499 L11.4797173,0.13441658 L15.6028137,0.13441658 L15.6028137,0.871716499 L13.9270172,0.871716499 L13.9270172,6.13441658 Z"></path>
                    <path d="M18.586216,6.13441658 L18.586216,0.13441658 L19.3567162,0.13441658 L19.3567162,6.13441658 L18.586216,6.13441658 Z"></path>
                    <path d="M22.776619,6.13441658 L22.0051155,6.13441658 L22.0051155,0.871716499 L20.3294144,0.871716499 L20.3294144,0.13441658 L24.4524155,0.13441658 L24.4524155,0.871716499 L22.776619,0.871716499 L22.776619,6.13441658 Z"></path>
                    <path d="M32.257618,5.35901642 C31.6736116,5.9412632 30.882585,6.26821804 30.0579185,6.26821804 C29.233252,6.26821804 28.4422255,5.9412632 27.8582191,5.35901642 C27.5693055,5.06638861 27.3421857,4.71865416 27.1903572,4.33648872 C27.0385287,3.95432353 26.965095,3.5455308 26.9744225,3.13441634 C26.965095,2.72330189 27.0385287,2.31450844 27.1903572,1.93234324 C27.3421857,1.55017805 27.5693055,1.20244396 27.8582191,0.909816086 C28.146877,0.621082842 28.4896435,0.392113775 28.8669014,0.236015588 C29.2441592,0.0799174011 29.6485047,-0.000244681774 30.0567818,0.000117570547 C30.4650588,0.000479822869 30.8692546,0.0813596249 31.2462349,0.238127023 C31.6232152,0.394894421 31.9655743,0.624471128 32.2537193,0.913716137 C32.542841,1.20557332 32.7703977,1.5525291 32.9228859,1.93399882 C33.0753741,2.31546855 33.1496902,2.72368097 33.1414223,3.13441634 C33.150496,3.54549813 33.0769434,3.95421791 32.9251289,4.33634758 C32.7733145,4.71847725 32.5463247,5.0662384 32.257618,5.35901642 Z M28.4275169,4.85661602 C28.8600494,5.28840971 29.4462516,5.5309267 30.0574226,5.5309267 C30.6685936,5.5309267 31.2547884,5.28840971 31.6873207,4.85661602 C31.9091229,4.62953472 32.082582,4.35984373 32.1972237,4.06383801 C32.3118653,3.76783228 32.3653092,3.45165658 32.3543205,3.13441634 C32.3653092,2.8171761 32.3118653,2.50100064 32.1972237,2.20499492 C32.082582,1.90898907 31.9091229,1.63929749 31.6873207,1.41221595 C31.2547884,0.980422497 30.6685936,0.7379058 30.0574226,0.7379058 C29.4462516,0.7379058 28.8600494,0.980422497 28.4275169,1.41221595 C28.2060297,1.63947713 28.0328439,1.9092232 27.9183846,2.20520186 C27.8039253,2.50118041 27.7505611,2.81726623 27.7615166,3.13441634 C27.7505611,3.45156646 27.8039253,3.76765251 27.9183846,4.06363106 C28.0328439,4.3596096 28.2060297,4.62935495 28.4275169,4.85661602 Z"></path>
                    <path d="M34.2234192,6.13441658 L34.2234192,0.13441658 L35.1619186,0.13441658 L38.077919,4.80191612 L38.1111145,4.80191612 L38.077919,3.64561653 L38.077919,0.13441658 L38.8494186,0.13441658 L38.8494186,6.13441658 L38.0447159,6.13441658 L34.9939117,1.24081612 L34.9607162,1.24081612 L34.9939117,2.39711666 L34.9939117,6.13441658 L34.2234192,6.13441658 Z"></path>
                </g>
                <path d="M27.094368,14.8860159 C26.2538588,14.8892015 25.4331343,15.1413535 24.7358246,15.6106348 C24.0385149,16.0799161 23.4958853,16.7452858 23.176445,17.5227327 C22.8570047,18.3001797 22.7750772,19.1548445 22.9410095,19.9788179 C23.1069418,20.8027914 23.5132943,21.5591263 24.108757,22.1523294 C24.7042197,22.7455326 25.4620914,23.1490043 26.2866898,23.3118029 C27.1112881,23.4746014 27.9656326,23.3894265 28.7418594,23.0670328 C29.5180863,22.7446392 30.1813909,22.1994826 30.6480179,21.5003939 C31.1146449,20.8013051 31.3636725,19.9796324 31.3636627,19.1391172 C31.3719238,18.5769382 31.2670163,18.01884 31.0551834,17.4980326 C30.8433505,16.9772252 30.5289261,16.5043501 30.1306076,16.107543 C29.7322891,15.7107359 29.2582194,15.3981057 28.7366104,15.1882544 C28.2150015,14.978403 27.6565115,14.8756176 27.094368,14.8860159 L27.094368,14.8860159 Z M27.094368,21.7168169 C26.5767443,21.7537242 26.0599946,21.6339354 25.6114044,21.3730459 C25.1628142,21.1121564 24.8031607,20.722253 24.5792694,20.2540979 C24.3553781,19.7859429 24.2776248,19.2612237 24.3561249,18.7482576 C24.4346249,18.2352915 24.6657428,17.7578426 25.0193939,17.3780699 C25.3730451,16.9982971 25.8328465,16.7337949 26.3389282,16.6190004 C26.8450099,16.504206 27.3739299,16.5444374 27.8568268,16.7344561 C28.3397236,16.9244747 28.7542219,17.2554776 29.0463638,17.684371 C29.3385058,18.1132644 29.4947554,18.6201794 29.4947662,19.1391172 C29.5104753,19.4669571 29.4604352,19.7946266 29.3475952,20.1028357 C29.2347552,20.4110447 29.0613912,20.6935633 28.8377151,20.9337606 C28.6140391,21.173958 28.3445742,21.3669794 28.0451736,21.5014601 C27.7457731,21.6359407 27.4224947,21.7091631 27.094368,21.7168169 L27.094368,21.7168169 Z M17.7809639,14.8860159 C16.9404504,14.8891818 16.1197205,15.1413177 15.4223976,15.6105871 C14.7250747,16.0798565 14.1824279,16.7452188 13.8629723,17.5226641 C13.5435166,18.3001093 13.4615776,19.1547768 13.6274986,19.9787569 C13.7934197,20.802737 14.1997607,21.559082 14.7952194,22.1522951 C15.3906782,22.7455083 16.148551,23.1489905 16.9731522,23.3117971 C17.7977533,23.4746038 18.6521083,23.3894351 19.4283409,23.0670443 C20.2045736,22.7446535 20.8678795,22.1994963 21.3345108,21.5004053 C21.8011422,20.8013144 22.0501731,19.9796367 22.0501633,19.1391172 C22.058424,18.5769467 21.9535221,18.018858 21.7416954,17.4980574 C21.5298687,16.9772567 21.2154465,16.5043849 20.8171387,16.1075792 C20.4188309,15.7107735 19.9447769,15.3981404 19.4231796,15.188283 C18.9015824,14.9784255 18.3430992,14.8756312 17.7809639,14.8860159 L17.7809639,14.8860159 Z M17.7809639,21.7168169 C17.2633402,21.7537242 16.7465943,21.6339354 16.2980042,21.3730459 C15.849414,21.1121564 15.4897643,20.722253 15.265873,20.2540979 C15.0419816,19.7859429 14.9642207,19.2612237 15.0427208,18.7482576 C15.1212208,18.2352915 15.3523425,17.7578426 15.7059937,17.3780699 C16.0596448,16.9982971 16.5194424,16.7337949 17.0255241,16.6190004 C17.5316058,16.504206 18.0605258,16.5444374 18.5434227,16.7344561 C19.0263196,16.9244747 19.4408216,17.2554776 19.7329636,17.684371 C20.0251055,18.1132644 20.1813551,18.6201794 20.181366,19.1391172 C20.1970833,19.466959 20.147051,19.7946306 20.034214,20.1028433 C19.9213771,20.411056 19.7480154,20.6935788 19.5243378,20.9337778 C19.3006601,21.1739769 19.0311854,21.3669975 18.731781,21.5014753 C18.4323767,21.6359532 18.1090931,21.7091712 17.7809639,21.7168169 Z M6.7021637,16.1910162 L6.7021637,17.9953165 L11.0198631,17.9953165 C10.9575653,18.8416219 10.611251,19.6420792 10.0370636,20.2669172 C9.60438183,20.7079479 9.08404893,21.0533728 8.50963593,21.2809057 C7.93522292,21.5084387 7.31948948,21.6130245 6.7021637,21.5879164 C5.44014335,21.5708297 4.23560452,21.0575023 3.3492012,20.1590166 C2.46279788,19.2605309 1.96582413,18.0491529 1.96582413,16.7870169 C1.96582413,15.5248809 2.46279788,14.3135009 3.3492012,13.4150152 C4.23560452,12.5165296 5.44014335,12.003204 6.7021637,11.9861174 C7.91437614,11.9702774 9.0838747,12.433418 9.95656586,13.2749166 L11.2292633,12.0022173 C10.633822,11.4127282 9.9266811,10.9480532 9.14929962,10.6354418 C8.37191814,10.3228304 7.53994358,10.1685736 6.7021637,10.181716 C5.82665163,10.1689695 4.95734286,10.3304034 4.14477921,10.6566305 C3.33221555,10.9828577 2.59261149,11.4673691 1.96897507,12.0819921 C1.34533864,12.6966152 0.850114018,13.429085 0.51209259,14.2368135 C0.174071163,15.0445421 0,15.911412 0,16.7870169 C0,17.6626217 0.174071163,18.5294898 0.51209259,19.3372183 C0.850114018,20.1449468 1.34533864,20.8774185 1.96897507,21.4920416 C2.59261149,22.1066647 3.33221555,22.5911741 4.14477921,22.9174013 C4.95734286,23.2436285 5.82665163,23.4050624 6.7021637,23.3923159 C7.55762327,23.4277923 8.41084927,23.2809516 9.20523071,22.9615335 C9.99961215,22.6421155 10.7169884,22.1574238 11.3097649,21.5396166 C12.3621728,20.3908788 12.9231249,18.8758312 12.8725662,17.318717 C12.8766898,16.9405769 12.8442708,16.5629219 12.7757645,16.1910162 L6.7021637,16.1910162 Z M52.0104675,17.5925169 C51.7548662,16.8221483 51.268306,16.1491376 50.6168976,15.6649199 C49.9654891,15.1807021 49.1808074,14.908752 48.3694611,14.8860159 C47.8229974,14.8894066 47.2828982,15.0035736 46.7818069,15.2216139 C46.2807156,15.4396541 45.8290406,15.7570393 45.4540863,16.1545858 C45.079132,16.5521324 44.7886869,17.0215828 44.6003036,17.5345602 C44.4119204,18.0475376 44.3295117,18.5933894 44.3580627,19.1391172 C44.3457488,19.6982978 44.4462681,20.2542226 44.6536179,20.7736845 C44.8609676,21.2931464 45.1708945,21.7654872 45.5648804,22.162488 C45.9588663,22.5594888 46.4288273,22.873004 46.9466934,23.0843077 C47.4645596,23.2956113 48.019706,23.4003668 48.5789642,23.3923159 C49.2796101,23.3961963 49.9702542,23.2259971 50.5888672,22.8970022 C51.2074802,22.5680073 51.7346887,22.0905194 52.1231613,21.5074167 L50.6732635,20.5408163 C50.4560506,20.9015477 50.1487954,21.1996185 49.7816391,21.4057856 C49.4144828,21.6119527 49.0000381,21.7191348 48.5789642,21.7168169 C48.14566,21.7333879 47.717371,21.6193745 47.3496552,21.3895655 C46.9819393,21.1597564 46.6917621,20.824755 46.5167618,20.4280157 L52.2038651,18.0759172 L52.0104675,17.5925169 Z M46.210762,19.0103159 C46.1907295,18.700759 46.2326451,18.3903151 46.3340454,18.0971518 C46.4354457,17.8039884 46.5942965,17.5339944 46.8013077,17.302968 C47.0083188,17.0719417 47.2593288,16.8845245 47.53965,16.7516832 C47.8199712,16.6188419 48.1239768,16.5432454 48.4338684,16.5293169 C48.7565515,16.5080859 49.0783403,16.582317 49.3591156,16.7427549 C49.6398909,16.9031929 49.8672237,17.142737 50.012764,17.4315157 L46.210762,19.0103159 Z M41.5869675,23.1345167 L43.4557648,23.1345167 L43.4557648,10.6329165 L41.5869675,10.6329165 L41.5869675,23.1345167 Z M38.5259628,15.8365164 L38.4615631,15.8365164 C38.1774438,15.5278284 37.8307024,15.2833537 37.4445114,15.1194372 C37.0583205,14.9555208 36.6415848,14.8759396 36.222168,14.8860159 C35.1254724,14.9326898 34.0891909,15.4011909 33.329689,16.1937037 C32.5701872,16.9862164 32.1461716,18.0414785 32.1461716,19.1391668 C32.1461716,20.2368551 32.5701872,21.2921153 33.329689,22.0846281 C34.0891909,22.8771409 35.1254724,23.3456419 36.222168,23.3923159 C36.6432436,23.4035195 37.0617041,23.3228513 37.4484406,23.1559229 C37.835177,22.9889945 38.1808986,22.7398155 38.4615631,22.4257174 L38.5259628,22.4257174 L38.5259628,23.0379171 C38.5259628,24.6651171 37.656064,25.5350161 36.254364,25.5350161 C35.7872291,25.5238331 35.3340008,25.3738355 34.9524231,25.1041346 C34.5708454,24.8344336 34.2781939,24.45724 34.111763,24.0206156 L32.4845657,24.6973162 C32.791247,25.4439873 33.3138888,26.0820819 33.9855194,26.5298357 C34.65715,26.9775895 35.4471748,27.2146059 36.254364,27.2105665 C38.4454639,27.2105665 40.2981644,25.921716 40.2981644,22.7801161 L40.2981644,15.1437159 L38.5259628,15.1437159 L38.5259628,15.8365164 Z M36.3833618,21.7168169 C35.7374277,21.6620458 35.1355979,21.3667549 34.6970062,20.8893995 C34.2584145,20.4120441 34.0150299,19.787419 34.0150299,19.1391668 C34.0150299,18.4909147 34.2584145,17.8662876 34.6970062,17.3889322 C35.1355979,16.9115768 35.7374277,16.6162879 36.3833618,16.5615168 C36.7047181,16.5772062 37.0196313,16.6574368 37.3093185,16.7974272 C37.5990058,16.9374176 37.8575384,17.1343016 38.0695114,17.3763418 C38.2814844,17.618382 38.4425553,17.9006244 38.5431213,18.2062426 C38.6436874,18.5118607 38.6816871,18.8345984 38.6548615,19.1552172 C38.6799881,19.4738486 38.6405975,19.7942732 38.539032,20.0973272 C38.4374665,20.4003813 38.2758174,20.6798376 38.0637589,20.9189787 C37.8517003,21.1581198 37.5935846,21.3520331 37.3048553,21.4891195 C37.0161261,21.626206 36.702711,21.7036497 36.3833618,21.7168169 L36.3833618,21.7168169 Z M60.7643661,10.6331168 L56.2931671,10.6331168 L56.2931671,23.1345167 L58.1588669,23.1345167 L58.1588669,18.3981161 L60.7643661,18.3981161 C61.2921208,18.4270488 61.8202289,18.3480811 62.3164368,18.1660376 C62.8126447,17.983994 63.2665355,17.7026977 63.6503677,17.3393316 C64.0342,16.9759655 64.339918,16.5381598 64.548851,16.0526609 C64.757784,15.5671621 64.8655396,15.0441636 64.8655396,14.5156164 C64.8655396,13.9870692 64.757784,13.4640707 64.548851,12.9785719 C64.339918,12.4930731 64.0342,12.0552673 63.6503677,11.6919012 C63.2665355,11.3285351 62.8126447,11.0472388 62.3164368,10.8651953 C61.8202289,10.6831518 61.2921208,10.6041841 60.7643661,10.6331168 L60.7643661,10.6331168 Z M60.812561,16.6583166 L58.1588669,16.6583166 L58.1588669,12.3730173 L60.812561,12.3730173 C61.0976738,12.3671091 61.3811023,12.4181625 61.6462326,12.5231867 C61.9113629,12.6282108 62.1528637,12.7850925 62.3565903,12.9846411 C62.5603169,13.1841897 62.7221699,13.4223909 62.8326645,13.6852884 C62.9431591,13.948186 63.0000763,14.2304921 63.0000763,14.515666 C63.0000763,14.80084 62.9431591,15.083146 62.8326645,15.3460436 C62.7221699,15.6089411 62.5603169,15.8471423 62.3565903,16.0466909 C62.1528637,16.2462396 61.9113629,16.4031231 61.6462326,16.5081472 C61.3811023,16.6131714 61.0976738,16.6642249 60.812561,16.6583166 L60.812561,16.6583166 Z M72.3442612,14.8630171 C71.663245,14.8232567 70.985437,14.9831816 70.3940201,15.3231668 C69.8026031,15.6631521 69.3233083,16.1684042 69.0149612,16.7769156 L70.6715622,17.4685163 C70.8358093,17.1664906 71.084554,16.9189072 71.3873444,16.756074 C71.6901347,16.5932407 72.0338356,16.5222235 72.3763657,16.5517168 C72.8496982,16.505506 73.3220398,16.6488512 73.6898575,16.9503298 C74.0576752,17.2518083 74.2909551,17.6868218 74.338562,18.1600161 L74.338562,18.2887163 C73.7393759,17.970384 73.0709598,17.8046619 72.3924637,17.8062162 C70.6072637,17.8062162 68.7898636,18.7873162 68.7898636,20.6208162 C68.8072067,21.0072236 68.901997,21.3862103 69.0686035,21.7352858 C69.23521,22.0843613 69.4702352,22.3964118 69.7597427,22.6529207 C70.0492503,22.9094296 70.3873374,23.1051697 70.7539368,23.2285242 C71.1205361,23.3518788 71.5081838,23.4003349 71.8938675,23.3710165 C72.3636768,23.3986707 72.8323062,23.2998664 73.2509613,23.0848932 C73.6696164,22.8699201 74.0229801,22.5466405 74.2742615,22.1487169 L74.338562,22.1487169 L74.338562,23.1137171 L76.1398621,23.1137171 L76.1398621,18.3209162 C76.1398621,16.1014161 74.4832611,14.8630171 72.3442612,14.8630171 L72.3442612,14.8630171 Z M72.1190643,21.7144156 C71.5078644,21.7144156 70.6554642,21.4089169 70.6554642,20.6529169 C70.6554642,19.6880169 71.7169662,19.318017 72.6337662,19.318017 C73.2292377,19.3021583 73.8180274,19.4465933 74.338562,19.7362165 C74.2700343,20.2784551 74.0074923,20.7775439 73.5994797,21.1411982 C73.1914671,21.5048524 72.6655837,21.7084739 72.1190643,21.7144156 L72.1190643,21.7144156 Z M82.7018661,15.1364164 L80.562767,20.5564165 L80.4983673,20.5564165 L78.2789612,15.1364164 L76.2685623,15.1364164 L79.5977631,22.7116156 L77.6999664,26.925416 L79.6459656,26.925416 L84.7765656,15.1364164 L82.7018661,15.1364164 Z M65.8948669,23.1345167 L67.7604675,23.1345167 L67.7604675,10.6331168 L65.8948669,10.6331168 L65.8948669,23.1345167 Z" id="Vector"></path>
            </g>
            <g id="Google-Play-logo" transform="translate(9.968872, 7.131391)">
                <path d="M0.466434479,0.406709194 C0.138520479,0.798781604 -0.0270535361,1.30140674 0.00363444793,1.81160927 L0.00363444793,23.9277086 C-0.0271426954,24.4379227 0.13844189,24.9405814 0.466434479,25.3326101 L0.540434837,25.4047079 L12.9294348,13.0158091 L12.9294348,12.7235098 L0.540434837,0.334109306 L0.466434479,0.406709194 Z" id="Vector" fill="url(#linearGradient-1)"></path>
                <path d="M17.0588284,17.1472101 L12.9294281,13.0158091 L12.9294281,12.7235098 L17.0598278,8.59310913 L17.1529274,8.64620972 L22.0457268,11.4263086 C23.4433268,12.2203087 23.4433268,13.5195097 22.0457268,14.3140097 L17.1529274,17.0941095 L17.0588284,17.1472101 Z" id="Vector" fill="url(#linearGradient-2)"></path>
                <path d="M17.1529312,17.0936098 L12.929431,12.86971 L0.466430664,25.3326101 C0.751199543,25.5837676 1.11485633,25.7273945 1.4943924,25.7386084 C1.87392846,25.7498222 2.2454302,25.627914 2.54453087,25.3940077 L17.1529312,17.0936098 Z" id="Vector" fill="url(#linearGradient-3)"></path>
                <path d="M17.1529312,8.64570904 L2.54453087,0.345309317 C2.2454302,0.111402988 1.87392846,-0.0105037934 1.4943924,0.000710063381 C1.11485633,0.0119239201 0.751199543,0.155551791 0.466430664,0.406709254 L12.929431,12.86971 L17.1529312,8.64570904 Z" id="Vector" fill="url(#linearGradient-4)"></path>
                <path d="M17.0598297,17.0006104 L2.54453087,25.2479095 C2.25694621,25.4668414 1.90595046,25.5862885 1.54451942,25.5882187 C1.18308839,25.5901489 0.830837309,25.4744576 0.540930748,25.2586098 L0.466430664,25.3331108 L0.540431023,25.4052086 L0.540930748,25.4047089 C0.830788493,25.6206733 1.18305889,25.736435 1.54452038,25.7345285 C1.90598187,25.7325744 2.25699624,25.6130565 2.54453087,25.3940086 L17.1529312,17.0936108 L17.0598297,17.0006104 Z" id="Vector" fill="#000000" opacity="0.200000003"></path>
                <path d="M0.46642673,25.1870098 C0.138544321,24.7949198 -0.0270254221,24.2923062 0.00362671725,23.7821083 L0.00362671725,23.9282093 C-0.0270438548,24.4384096 0.138528079,24.941028 0.46642673,25.3331089 L0.540926814,25.2586079 L0.46642673,25.1870098 Z" id="Vector" fill="#000000" opacity="0.119999997"></path>
                <path d="M22.0457287,14.1674089 L17.0598297,17.0006094 L17.1529293,17.0936098 L22.0457287,14.3135099 C22.3335428,14.1886044 22.5826054,13.9888167 22.7669773,13.7349558 C22.9513492,13.4810949 23.0642885,13.1824446 23.0940304,12.8701086 C23.0321684,13.1529545 22.9052083,13.4174822 22.7232342,13.6426802 C22.54126,13.8678782 22.3092831,14.0475432 22.0457287,14.1674089 L22.0457287,14.1674089 Z" id="Vector" fill="#000000" opacity="0.119999997"></path>
                <path d="M2.54453182,0.491908848 L22.0457306,11.571909 C22.3093881,11.6917588 22.5414403,11.8714806 22.7234268,12.0967808 C22.9054134,12.3220809 23.0323142,12.5867424 23.0940323,12.869709 C23.0644948,12.5572487 22.9516415,12.2584409 22.7672501,12.0044651 C22.5828586,11.7504893 22.3336851,11.5506525 22.0457306,11.425808 L2.54453182,0.345808804 C1.14693177,-0.448291183 0.0036315918,0.21130836 0.0036315918,1.8121084 L0.0036315918,1.95820844 C0.0036315918,0.357508421 1.14693177,-0.302091181 2.54453182,0.491908848 Z" id="Vector" fill="#FFFFFF" opacity="0.25"></path>
            </g>
        </g>
    </g>
</svg>