<svg width="597" height="347" viewBox="0 0 597 347" fill="none" xmlns="http://www.w3.org/2000/svg">
<g clip-path="url(#clip0_907_19701)">
<rect width="597" height="347" rx="20" fill="#26A9E0"/>
<path opacity="0.2" d="M-106.711 377.375C-28.2175 403.863 56.8872 361.704 83.3752 283.21C109.863 204.716 67.704 119.612 -10.7899 93.1237C-89.2839 66.6357 -174.389 108.795 -200.877 187.289" stroke="white" stroke-width="4" stroke-linecap="round"/>
<g opacity="0.5">
<path d="M377 8H381V12H377V8Z" fill="white"/>
<path d="M401 8H405V12H401V8Z" fill="white"/>
<path d="M425 8H429V12H425V8Z" fill="white"/>
<path d="M449 8H453V12H449V8Z" fill="white"/>
<path d="M473 8H477V12H473V8Z" fill="white"/>
<path d="M497 8H501V12H497V8Z" fill="white"/>
<path d="M521 8H525V12H521V8Z" fill="white"/>
<path d="M377 32H381V36H377V32Z" fill="white"/>
<path d="M401 32H405V36H401V32Z" fill="white"/>
<path d="M425 32H429V36H425V32Z" fill="white"/>
<path d="M449 32H453V36H449V32Z" fill="white"/>
<path d="M473 32H477V36H473V32Z" fill="white"/>
<path d="M497 32H501V36H497V32Z" fill="white"/>
<path d="M521 32H525V36H521V32Z" fill="white"/>
<path d="M377 56H381V60H377V56Z" fill="white"/>
<path d="M401 56H405V60H401V56Z" fill="white"/>
<path d="M425 56H429V60H425V56Z" fill="white"/>
<path d="M449 56H453V60H449V56Z" fill="white"/>
<path d="M473 56H477V60H473V56Z" fill="white"/>
<path d="M497 56H501V60H497V56Z" fill="white"/>
<path d="M521 56H525V60H521V56Z" fill="white"/>
<path d="M377 80H381V84H377V80Z" fill="white"/>
<path d="M401 80H405V84H401V80Z" fill="white"/>
<path d="M425 80H429V84H425V80Z" fill="white"/>
<path d="M449 80H453V84H449V80Z" fill="white"/>
<path d="M473 80H477V84H473V80Z" fill="white"/>
<path d="M497 80H501V84H497V80Z" fill="white"/>
<path d="M521 80H525V84H521V80Z" fill="white"/>
<path d="M377 104H381V108H377V104Z" fill="white"/>
<path d="M401 104H405V108H401V104Z" fill="white"/>
<path d="M425 104H429V108H425V104Z" fill="white"/>
<path d="M449 104H453V108H449V104Z" fill="white"/>
<path d="M473 104H477V108H473V104Z" fill="white"/>
<path d="M497 104H501V108H497V104Z" fill="white"/>
<path d="M521 104H525V108H521V104Z" fill="white"/>
<path d="M377 128H381V132H377V128Z" fill="white"/>
<path d="M401 128H405V132H401V128Z" fill="white"/>
<path d="M425 128H429V132H425V128Z" fill="white"/>
<path d="M449 128H453V132H449V128Z" fill="white"/>
<path d="M473 128H477V132H473V128Z" fill="white"/>
<path d="M497 128H501V132H497V128Z" fill="white"/>
<path d="M521 128H525V132H521V128Z" fill="white"/>
<path d="M377 152H381V156H377V152Z" fill="white"/>
<path d="M401 152H405V156H401V152Z" fill="white"/>
<path d="M425 152H429V156H425V152Z" fill="white"/>
<path d="M449 152H453V156H449V152Z" fill="white"/>
<path d="M473 152H477V156H473V152Z" fill="white"/>
<path d="M497 152H501V156H497V152Z" fill="white"/>
<path d="M521 152H525V156H521V152Z" fill="white"/>
</g>
</g>
<defs>
<clipPath id="clip0_907_19701">
<rect width="597" height="347" rx="20" fill="white"/>
</clipPath>
</defs>
</svg>
