<svg width="597" height="347" viewBox="0 0 597 347" fill="none" xmlns="http://www.w3.org/2000/svg">
<rect width="597" height="347" rx="20" fill="#4FE765"/>
<path d="M440.582 39.6668L449.749 31.3335L458.082 39.6668L465.165 32.5835L472.249 39.6668L479.332 32.5835L486.415 39.6668L493.499 32.5835L500.582 39.6668L507.665 32.5835L514.749 39.6668L521.832 32.5835L528.915 39.6668L535.999 32.5835" stroke="#EAF7FC" stroke-width="2" stroke-linecap="round" stroke-linejoin="round"/>
<circle cx="536" cy="33" r="4" fill="#002A56" stroke="white" stroke-width="2"/>
<circle cx="441" cy="39.6667" r="4" fill="#002A56" stroke="white" stroke-width="2"/>
<path d="M70.1992 283.4L62.1992 274.6L70.1992 266.6L63.3992 259.8L70.1992 253L63.3992 246.2L70.1992 239.4L63.3992 232.6L70.1992 225.8L63.3992 219L70.1992 212.2L63.3992 205.4L70.1992 198.6L63.3992 191.8" stroke="#EAF7FC" stroke-width="2" stroke-linecap="round" stroke-linejoin="round"/>
<circle cx="63.8" cy="191.8" r="3.80001" transform="rotate(-90 63.8 191.8)" fill="#002A56" stroke="white" stroke-width="2"/>
<circle cx="70.2004" cy="283" r="3.80001" transform="rotate(-90 70.2004 283)" fill="#002A56" stroke="white" stroke-width="2"/>
</svg>
