<svg width="74" height="72" viewBox="0 0 74 72" fill="none" xmlns="http://www.w3.org/2000/svg">
<path opacity="0.56" fill-rule="evenodd" clip-rule="evenodd" d="M69.3269 31.7985L69.0301 32.2341L68.7277 32.6625L68.4201 33.0837L68.1076 33.4976L67.7908 33.9041L67.4699 34.3033L67.1454 34.6951L66.8176 35.0795L66.4869 35.4566L66.1536 35.8264L65.818 36.1889L65.4804 36.5441L65.1409 36.8921L64.7999 37.233L64.4577 37.5668L64.1144 37.8936L63.7706 38.2135L63.4266 38.5267L63.0832 38.8333L62.7409 39.1336L62.4006 39.428L62.063 39.7166L61.7291 40.0001L61.3997 40.2787L61.0758 40.5531L60.7584 40.8238L60.4485 41.0916L60.1473 41.357L59.8558 41.6209L59.5752 41.8843L59.3066 42.148L59.0511 42.4129L58.8095 42.6802L58.5828 42.9508L58.3716 43.2258L58.1766 43.5061L57.9983 43.7929L57.8371 44.0872L57.6932 44.3899L57.5669 44.7021L57.4581 45.0246L57.3667 45.3584L57.2924 45.7043L57.2349 46.0631L57.1936 46.4354L57.1678 46.8218L57.1568 47.2229L57.1597 47.639L57.1754 48.0705L57.2028 48.5175L57.2408 48.9801L57.288 49.4584L57.343 49.9521L57.4044 50.4611L57.4708 50.9848L57.5405 51.523L57.6121 52.0748L57.6838 52.6397L57.7542 53.2168L57.8217 53.8052L57.8845 54.4038L57.9413 55.0115L57.9904 55.6272L58.0304 56.2495L58.0598 56.8771L58.0773 57.5085L58.0816 58.1423L58.0714 58.777L58.0457 59.4109L58.0034 60.0426L57.9434 60.6704L57.8651 61.2927L57.7676 61.9079L57.6503 62.5143L57.5126 63.1105L57.3543 63.6948L57.1749 64.2658L56.9742 64.8219L56.7522 65.3618L56.5089 65.8842L56.2444 66.3877L55.959 66.8711L55.653 67.3334L55.3268 67.7735L54.981 68.1905L54.6161 68.5836L54.2328 68.9521L53.832 69.2953L53.4143 69.6129L52.9807 69.9043L52.5322 70.1694L52.0697 70.408L51.5943 70.6202L51.1071 70.8061L50.6091 70.966L50.1015 71.1002L49.5854 71.2093L49.062 71.2941L48.5324 71.3552L47.9977 71.3937L47.4591 71.4105L46.9175 71.4066L46.3741 71.3834L45.8297 71.342L45.2855 71.284L44.7421 71.2109L44.2006 71.1241L43.6616 71.0254L43.1259 70.9164L42.594 70.7988L42.0664 70.6742L41.5437 70.5443L41.0261 70.4106L40.5139 70.2746L40.0072 70.1379L39.5062 70.0016L39.0107 69.8669L38.5208 69.7348L38.0363 69.6065L37.557 69.4828L37.0827 69.3646L36.6131 69.2527L36.1479 69.1479L35.6867 69.0508L35.2292 68.962L34.775 68.8819L34.3235 68.811L33.8744 68.7494L33.4271 68.6973L32.9813 68.6549L32.5363 68.6221L32.0918 68.5987L31.6472 68.5846L31.2022 68.5794L30.7562 68.5828L30.309 68.5941L29.86 68.6127L29.4091 68.638L28.9558 68.6692L28.5 68.7055L28.0414 68.7458L27.5799 68.7891L27.1153 68.8345L26.6478 68.8808L26.1772 68.9269L25.7038 68.9715L25.2275 69.0134L24.7487 69.0514L24.2677 69.0843L23.7846 69.1107L23.3001 69.1295L22.8145 69.1394L22.3283 69.1391L21.8421 69.1277L21.3565 69.1038L20.8722 69.0665L20.3899 69.0147L19.9103 68.9474L19.4342 68.8639L18.9624 68.7633L18.4957 68.6448L18.035 68.5078L17.581 68.3519L17.1347 68.1764L16.6968 67.9812L16.2682 67.7659L15.8497 67.5303L15.442 67.2745L15.0461 66.9983L14.6625 66.7021L14.2919 66.3859L13.9351 66.0502L13.5926 65.6953L13.2649 65.3217L12.9526 64.9299L12.6561 64.5208L12.3758 64.0948L12.1119 63.653L11.8647 63.196L11.6343 62.7249L11.4209 62.2406L11.2245 61.7441L11.045 61.2366L10.8822 60.719L10.7359 60.1926L10.6059 59.6585L10.4916 59.118L10.3928 58.5721L10.3088 58.0221L10.239 57.4692L10.1829 56.9146L10.1396 56.3593L10.1084 55.8045L10.0885 55.2514L10.0789 54.7009L10.0788 54.1542L10.087 53.6121L10.1027 53.0757L10.1247 52.5459L10.152 52.0235L10.1832 51.5093L10.2174 51.0041L10.2532 50.5085L10.2895 50.0231L10.3251 49.5485L10.3587 49.0852L10.3891 48.6335L10.4151 48.1938L10.4355 47.7664L10.4492 47.3513L10.455 46.9487L10.4518 46.5587L10.4386 46.1811L10.4143 45.8158L10.3781 45.4626L10.329 45.1212L10.2665 44.7912L10.1897 44.4721L10.0981 44.1635L9.99136 43.8646L9.86904 43.5748L9.73097 43.2934L9.57703 43.0197L9.40725 42.7528L9.22178 42.4918L9.02087 42.2359L8.80492 41.9842L8.57442 41.7358L8.32999 41.4898L8.07237 41.2452L7.80239 41.0012L7.52098 40.7568L7.22919 40.5113L6.92814 40.2637L6.61903 40.0133L6.30314 39.7594L5.98182 39.5013L5.65649 39.2383L5.32858 38.9698L4.9996 38.6954L4.67107 38.4146L4.34453 38.127L4.02155 37.8323L3.70368 37.5303L3.39246 37.2209L3.08943 36.9039L2.7961 36.5794L2.51394 36.2474L2.24435 35.9081L1.98873 35.5617L1.74836 35.2085L1.52449 34.8488L1.31828 34.483L1.13081 34.1117L0.963058 33.7353L0.815917 33.3544L0.690174 32.9696L0.586512 32.5815L0.5055 32.1909L0.447596 31.7985L0.413138 31.405L0.402344 31.0111L0.415307 30.6175L0.451996 30.2251L0.512252 29.8345L0.595788 29.4465L0.702184 29.0618L0.830888 28.681L0.981218 28.3048L1.15235 27.9338L1.34334 27.5685L1.55314 27.2093L1.78059 26.8568L2.02446 26.5113L2.28345 26.1729L2.55616 25.8421L2.84114 25.5188L3.13686 25.2032L3.44174 24.8952L3.75416 24.5947L4.0725 24.3015L4.39512 24.0154L4.7204 23.7359L5.04674 23.4627L5.3726 23.1953L5.69652 22.9332L6.0171 22.6757L6.33305 22.4222L6.64321 22.1722L6.94654 21.9249L7.24213 21.6796L7.5291 21.4356L7.80664 21.1922L8.07402 20.9487L8.33055 20.7041L8.57561 20.4578L8.80866 20.209L9.02923 19.9567L9.23695 19.7002L9.43152 19.4387L9.61276 19.1713L9.78056 18.8974L9.93496 18.6162L10.0761 18.327L10.2041 18.0292L10.3194 17.7223L10.4224 17.4056L10.5136 17.0789L10.5937 16.7416L10.6633 16.3936L10.7233 16.0345L10.7746 15.6644L10.818 15.2832L10.8547 14.8909L10.8857 14.4877L10.912 14.0739L10.935 13.6498L10.9558 13.2159L10.9756 12.7727L10.9956 12.3209L11.0172 11.8612L11.0416 11.3944L11.07 10.9215L11.1037 10.4433L11.1438 9.96106L11.1916 9.47583L11.2482 8.98884L11.3147 8.50135L11.3921 8.01467L11.4814 7.53018L11.5835 7.04928L11.6992 6.5734L11.8293 6.104L11.9744 5.64253L12.1352 5.19048L12.3121 4.7493L12.5055 4.32045L12.7157 3.90534L12.9429 3.50536L13.1872 3.12184L13.4486 2.75608L13.7269 2.40929L14.0221 2.08262L14.3337 1.77712L14.6614 1.49376L15.0047 1.23342L15.3629 0.996842L15.7355 0.784673L16.1217 0.59743L16.5207 0.4355L16.9315 0.299139L17.3533 0.188464L17.7851 0.103451L18.2257 0.0439338L18.6742 0.00960112L19.1295 0L19.5904 0.0145361L20.0558 0.0524783L20.5246 0.112964L20.9956 0.195007L21.4679 0.297499L21.9403 0.419222L22.4119 0.558833L22.8816 0.714872L23.3485 0.885775L23.8117 1.06989L24.2704 1.2655L24.7239 1.47084L25.1716 1.68411L25.6128 1.9035L26.0471 2.12723L26.4742 2.35353L26.8937 2.58068L27.3055 2.80706L27.7095 3.03113L28.1056 3.25148L28.494 3.46681L28.8748 3.67592L29.2482 3.87767L29.6145 4.07096L29.9741 4.25475L30.3273 4.42805L30.6744 4.58995L31.0161 4.73958L31.3528 4.87614L31.685 4.99892L32.0133 5.10729L32.3384 5.2007L32.6608 5.27871L32.9813 5.34098L33.3004 5.38725L33.6189 5.41739L33.9375 5.43133L34.2568 5.42915L34.5774 5.41098L34.9001 5.37706L35.2256 5.32774L35.5543 5.26344L35.8869 5.18464L36.224 5.09194L36.5662 4.98598L36.9138 4.86748L37.2674 4.73721L37.6273 4.596L37.994 4.44474L38.3678 4.28434L38.749 4.11577L39.1377 3.94L39.5343 3.75806L39.9387 3.57097L40.3512 3.37977L40.7718 3.18552L41.2003 2.98927L41.637 2.79207L42.0815 2.59496L42.5338 2.39896L42.9937 2.20508L43.461 2.01432L43.9354 1.82763L44.4166 1.64594L44.9044 1.47015L45.3984 1.30113L45.8981 1.13969L46.4033 0.986613L46.9134 0.842629L47.428 0.708425L47.9468 0.584637L48.4691 0.471853L48.9946 0.370604L49.5227 0.281373L50.0531 0.204585L50.5851 0.140613L51.1184 0.0897742L51.6525 0.0523327L52.1869 0.0284979L52.7212 0.0184263L53.255 0.0222222L53.7879 0.0399394L54.3194 0.0715825L54.8494 0.117109L55.3773 0.176432L55.903 0.24942L56.4262 0.335905L56.9466 0.435682L57.4641 0.548517L57.9784 0.674157L58.4894 0.812335L58.997 0.96277L59.5009 1.12518L60.0012 1.29928L60.4977 1.48481L60.9904 1.68149L61.479 1.88908L61.9635 2.10735L62.4437 2.33609L62.9196 2.57511L63.3909 2.82425L63.8575 3.08339L64.3191 3.35244L64.7754 3.63135L65.2262 3.92011L65.6709 4.21876L66.1091 4.52739L66.5402 4.84612L66.9636 5.17505L67.3788 5.51427L67.7851 5.86382L68.182 6.22372L68.5688 6.59394L68.9451 6.97446L69.3102 7.36522L69.6636 7.76611L70.0047 8.17703L70.333 8.59782L70.6478 9.02828L70.9489 9.4682L71.2356 9.91732L71.5076 10.3753L71.7645 10.8419L72.006 11.3168L72.2317 11.7994L72.4413 12.2895L72.6348 12.7867L72.8117 13.2903L72.9721 13.8001L73.1159 14.3155L73.2429 14.8359L73.3531 15.361L73.4467 15.8902L73.5235 16.4229L73.5838 16.9586L73.6276 17.4969L73.6552 18.0373L73.6665 18.5791L73.662 19.1219L73.6418 19.6652L73.6062 20.2085L73.5555 20.7514L73.4898 21.2933L73.4097 21.8338L73.3153 22.3725L73.2071 22.909L73.0853 23.4428L72.9504 23.9736L72.8027 24.501L72.6427 25.0246L72.4706 25.544L72.2869 26.0591L72.0919 26.5694L71.8862 27.0746L71.6701 27.5745L71.444 28.0689L71.2083 28.5575L70.9635 29.04L70.71 29.5164L70.4482 29.9862L70.1786 30.4496L69.9015 30.9061L69.6175 31.3558L69.3269 31.7985Z" fill="url(#paint0_linear_1010_5088)" fill-opacity="0.4"/>
<defs>
<linearGradient id="paint0_linear_1010_5088" x1="50.0902" y1="-7.57001" x2="-1.64542" y2="70.3861" gradientUnits="userSpaceOnUse">
<stop stop-color="#26A9E0"/>
<stop offset="1" stop-color="#4FE765"/>
</linearGradient>
</defs>
</svg>
